<svg viewBox="0 0 530.95 132.01" xmlns="http://www.w3.org/2000/svg" xmlns:xlink="http://www.w3.org/1999/xlink"><clipPath id="a"><path d="m-32.3-16.04h1899.76v921.7h-1899.76z"/></clipPath><g clip-path="url(#a)"><path d="m105.5 108.77-27.5-84.25h11.75l13.12 41.48c3.63 11.37 6.75 21.62 9 31.5h.25c2.38-9.75 5.88-20.38 9.63-31.38l14.25-41.6h11.62l-30.12 84.25z" fill="#1e1e1e"/><path d="m105.5 108.77-27.5-84.25h11.75l13.12 41.48c3.63 11.37 6.75 21.62 9 31.5h.25c2.38-9.75 5.88-20.38 9.63-31.38l14.25-41.6h11.62l-30.12 84.25z" fill="none" stroke="#fff" stroke-miterlimit="10"/><path d="m169.25 24.52h10.88v84.25h-10.88z" fill="#1e1e1e"/><path d="m169.25 24.52h10.88v84.25h-10.88z" fill="none" stroke="#fff" stroke-miterlimit="10"/><path d="m211.62 25.64a113.77 113.77 0 0 1 20.88-1.75c11.62 0 19.12 2.13 24.37 6.88 4.25 3.75 6.63 9.5 6.63 16 0 11.12-7 18.5-15.88 21.5v.37c6.5 2.25 10.38 8.25 12.38 17 2.75 11.75 4.75 19.88 6.5 23.13h-11.25c-1.38-2.38-3.25-9.63-5.63-20.13-2.5-11.62-7-16-16.87-16.37h-10.25v36.5h-10.88zm10.88 38.36h11.12c11.63 0 19-6.38 19-16 0-10.88-7.87-15.63-19.37-15.75a44.74 44.74 0 0 0 -10.75 1z" fill="#1e1e1e"/><path d="m211.62 25.64a113.77 113.77 0 0 1 20.88-1.75c11.62 0 19.12 2.13 24.37 6.88 4.25 3.75 6.63 9.5 6.63 16 0 11.12-7 18.5-15.88 21.5v.37c6.5 2.25 10.38 8.25 12.38 17 2.75 11.75 4.75 19.88 6.5 23.13h-11.25c-1.38-2.38-3.25-9.63-5.63-20.13-2.5-11.62-7-16-16.87-16.37h-10.25v36.5h-10.88zm10.88 38.36h11.12c11.63 0 19-6.38 19-16 0-10.88-7.87-15.63-19.37-15.75a44.74 44.74 0 0 0 -10.75 1z" fill="none" stroke="#fff" stroke-miterlimit="10"/><path d="m291.37 24.52h10.88v84.25h-10.88z" fill="#1e1e1e"/><path d="m291.37 24.52h10.88v84.25h-10.88z" fill="none" stroke="#fff" stroke-miterlimit="10"/><path d="m333.75 25.64a155.7 155.7 0 0 1 23.12-1.75c15.63 0 26.75 3.63 34.13 10.5s11.87 16.61 11.87 30.25-4.25 25-12.12 32.75-20.88 12.13-37.25 12.13a176.72 176.72 0 0 1 -19.75-1zm10.87 74.5a68.6 68.6 0 0 0 11 .63c23.25 0 35.88-13 35.88-35.75.12-19.88-11.13-32.5-34.13-32.5a62.29 62.29 0 0 0 -12.75 1.12z" fill="#1e1e1e"/><path d="m333.75 25.64a155.7 155.7 0 0 1 23.12-1.75c15.63 0 26.75 3.63 34.13 10.5s11.87 16.61 11.87 30.25-4.25 25-12.12 32.75-20.88 12.13-37.25 12.13a176.72 176.72 0 0 1 -19.75-1zm10.87 74.5a68.6 68.6 0 0 0 11 .63c23.25 0 35.88-13 35.88-35.75.12-19.88-11.13-32.5-34.13-32.5a62.29 62.29 0 0 0 -12.75 1.12z" fill="none" stroke="#fff" stroke-miterlimit="10"/><path d="m429.49 24.52h10.88v84.25h-10.88z" fill="#1e1e1e"/><path d="m429.49 24.52h10.88v84.25h-10.88z" fill="none" stroke="#fff" stroke-miterlimit="10"/><path d="m470.37 95.52a38.52 38.52 0 0 0 19.5 5.5c11.12 0 17.62-5.88 17.62-14.38 0-7.87-4.5-12.37-15.87-16.75-13.75-4.89-22.25-12-22.25-23.89 0-13.13 10.87-22.88 27.25-22.88 8.62 0 14.87 2 18.62 4.13l-3 8.87a33.54 33.54 0 0 0 -16-4c-11.5 0-15.87 6.88-15.87 12.63 0 7.87 5.12 11.75 16.75 16.25 14.25 5.5 21.5 12.37 21.5 24.75 0 13-9.63 24.25-29.5 24.25-8.13 0-17-2.38-21.5-5.38z" fill="#1e1e1e"/><path d="m470.37 95.52a38.52 38.52 0 0 0 19.5 5.5c11.12 0 17.62-5.88 17.62-14.38 0-7.87-4.5-12.37-15.87-16.75-13.75-4.89-22.25-12-22.25-23.89 0-13.13 10.87-22.88 27.25-22.88 8.62 0 14.87 2 18.62 4.13l-3 8.87a33.54 33.54 0 0 0 -16-4c-11.5 0-15.87 6.88-15.87 12.63 0 7.87 5.12 11.75 16.75 16.25 14.25 5.5 21.5 12.37 21.5 24.75 0 13-9.63 24.25-29.5 24.25-8.13 0-17-2.38-21.5-5.38z" fill="none" stroke="#fff" stroke-miterlimit="10"/><g fill="#4ac690"><path d="m28.63 51.19a13.66 13.66 0 1 1 -13.63 13.66 13.66 13.66 0 0 1 13.63-13.66"/><path d="m28.63 95a13.66 13.66 0 1 1 -13.63 13.66 13.67 13.67 0 0 1 13.63-13.66"/><path d="m28.63 7.37a13.67 13.67 0 1 1 -13.63 13.63 13.67 13.67 0 0 1 13.63-13.63"/></g></g></svg>